<svg xmlns="http://www.w3.org/2000/svg" viewBox="0 0 48 48"><path fill="#a4b419" d="M33 25c0 5-4 9-9 9s-9-4-9-9c0-.3 0-.7.1-1H5v11c0 1.1.9 2 2 2h34c1.1 0 2-.9 2-2V24H32.9c.1.3.1.7.1 1z"/><path fill="#a4b419" d="M30.3 22c-.3-.6-.6-1.1-1.1-1.6-.2-.2-.4-.5-.7-.7-.2-.2-.5-.4-.8-.6h-.1c-.2-.1-.5-.3-.7-.4 0 0-.1 0-.1-.1-.3-.1-.6-.2-.8-.3h-.1c-.3-.1-.5-.1-.8-.2h-.2c-.3-.1-.6-.1-.9-.1s-.6 0-.9.1h-.2c-.3 0-.5.1-.8.2H22c-.3.1-.6.2-.8.3 0 0-.1 0-.1.1-.3.1-.5.3-.7.4h-.1c-.3.2-.5.4-.8.6-.2.2-.5.4-.7.7-.4.5-.8 1-1.1 1.6-.4.9-.7 1.9-.7 3 0 3.9 3.1 7 7 7s7-3.1 7-7c0-1.1-.2-2.1-.7-3zM24 29c-2.2 0-4-1.8-4-4s1.8-4 4-4 4 1.8 4 4-1.8 4-4 4z"/><path fill="#a4b419" d="M33 25c0 5-4 9-9 9s-9-4-9-9c0-.3 0-.7.1-1H5v11c0 1.1.9 2 2 2h34c1.1 0 2-.9 2-2V24H32.9c.1.3.1.7.1 1zM41 14h-1v-1c0-.6-.4-1-1-1h-2c-.6 0-1 .4-1 1v1h-2.8l-.8-3.5c-.2-.9-1-1.5-1.9-1.5H17.6c-.9 0-1.7.6-1.9 1.5l-.9 3.5H7c-1.1 0-2 .9-2 2v6h10.5c1.2-3.5 4.6-6 8.5-6s7.2 2.5 8.5 6H43v-6c0-1.1-.9-2-2-2z"/><path fill="#5e7200" d="M24 18c-3.9 0-7 3.1-7 7s3.1 7 7 7 7-3.1 7-7-3.1-7-7-7zm0 11c-2.2 0-4-1.8-4-4s1.8-4 4-4 4 1.8 4 4-1.8 4-4 4z"/><g><path fill="none" d="M-37-21H3v15h-40z"/><text font-family="ArialMT" font-size="3" transform="translate(-36.997 -18.87)">KfW-Dunkelblau (#005a8c)</text><text font-family="ArialMT" font-size="3" transform="translate(-36.997 -15.27)">KfW-Hellblau Digital (#519dc2)</text><text font-family="ArialMT" font-size="3" transform="translate(-36.997 -11.67)">KfW-Grün Digital (#5e7200)</text><text font-family="ArialMT" font-size="3" transform="translate(-36.997 -8.069)">KfW-Hellgrün (#a4b419)</text><path fill="none" d="M13-22h37v16H13z"/><text font-family="ArialMT" font-size="2" transform="translate(13.003 -20.58)">Kombination KfW-Dunkelblau (</text><text fill="#005a8c" font-family="ArialMT" font-size="2" transform="translate(38.903 -20.58)">#005a8c</text><text font-family="ArialMT" font-size="2" transform="translate(45.803 -20.58)">)</text><text font-family="ArialMT" font-size="2" transform="translate(13.003 -18.18)">und KfW-Hellblau Digital (</text><text fill="#519dc2" font-family="ArialMT" font-size="2" transform="translate(34.603 -18.18)">#519dc2</text><text font-family="ArialMT" font-size="2" transform="translate(41.703 -18.18)">)</text><text font-family="ArialMT" font-size="2" transform="translate(13.003 -10.98)">Kombination KfW-Grün Digital (</text><text fill="#5e7200" font-family="ArialMT" font-size="2" transform="translate(39.303 -10.98)">#5e7200</text><text font-family="ArialMT" font-size="2" transform="translate(46.403 -10.98)">)</text><text font-family="ArialMT" font-size="2" transform="translate(13.003 -8.58)">und KfW-Hellgrün (</text><text fill="#a4b419" font-family="ArialMT" font-size="2" transform="translate(29.003 -8.58)">#a4b419</text><text font-family="ArialMT" font-size="2" transform="translate(36.203 -8.58)">)</text><path fill="#a4b419" d="M-39-6h6v4h-6z"/></g><g><path fill="none" d="M-37-21H3v15h-40z"/><text font-family="ArialMT" font-size="3" transform="translate(-36.997 -18.87)">KfW-Dunkelblau (#005a8c)</text><text font-family="ArialMT" font-size="3" transform="translate(-36.997 -15.27)">KfW-Hellblau Digital (#519dc2)</text><text font-family="ArialMT" font-size="3" transform="translate(-36.997 -11.67)">KfW-Grün Digital (#5e7200)</text><text font-family="ArialMT" font-size="3" transform="translate(-36.997 -8.069)">KfW-Hellgrün (#a4b419)</text><path fill="none" d="M13-22h37v16H13z"/><text font-family="ArialMT" font-size="2" transform="translate(13.003 -20.58)">Kombination KfW-Dunkelblau (</text><text fill="#005a8c" font-family="ArialMT" font-size="2" transform="translate(38.903 -20.58)">#005a8c</text><text font-family="ArialMT" font-size="2" transform="translate(45.803 -20.58)">)</text><text font-family="ArialMT" font-size="2" transform="translate(13.003 -18.18)">und KfW-Hellblau Digital (</text><text fill="#519dc2" font-family="ArialMT" font-size="2" transform="translate(34.603 -18.18)">#519dc2</text><text font-family="ArialMT" font-size="2" transform="translate(41.703 -18.18)">)</text><text font-family="ArialMT" font-size="2" transform="translate(13.003 -10.98)">Kombination KfW-Grün Digital (</text><text fill="#5e7200" font-family="ArialMT" font-size="2" transform="translate(39.303 -10.98)">#5e7200</text><text font-family="ArialMT" font-size="2" transform="translate(46.403 -10.98)">)</text><text font-family="ArialMT" font-size="2" transform="translate(13.003 -8.58)">und KfW-Hellgrün (</text><text fill="#a4b419" font-family="ArialMT" font-size="2" transform="translate(29.003 -8.58)">#a4b419</text><text font-family="ArialMT" font-size="2" transform="translate(36.203 -8.58)">)</text><path fill="#a4b419" d="M-39-6h6v4h-6z"/></g></svg>