<svg xmlns="http://www.w3.org/2000/svg" viewBox="0 0 48 48"><g fill="#a4b419"><path d="M39.7 10.3c-2.9-2.9-7.7-2.9-10.6 0l-3.2 3.2c-.8.8-.8 2 0 2.8l7.8 7.8c.8.8 2 .8 2.8 0l3.2-3.2c2.9-2.9 2.9-7.6 0-10.6zM9.6 34c-.8.8-.8 2 0 2.8l1.1 1.1L9.6 39c-.4.4-.9.4-1.2.1l-1.6-1.6c-.4-.4-1-.4-1.4 0-.4.4-.4 1 0 1.4L7 40.6c.5.4 1.2.7 1.9.7.8 0 1.5-.3 2.1-.9l1.2-1.1 1.1 1.1c.8.8 2 .8 2.8 0l10-10-6.5-6.4-10 10z"/></g><path fill="#5e7200" d="M27.4 29l2.7-2.7c.8-.8.8-2 0-2.8L26.6 20c-.8-.8-2-.8-2.8 0L21 22.6l6.4 6.4z"/><g><path fill="none" d="M-37-21H3v15h-40z"/><text transform="translate(-36.997 -18.869)"><tspan x="0" y="0" font-family="MyriadPro-Regular" font-size="3">KfW-Dunkelblau (#005a8c)</tspan><tspan x="0" y="3.6" font-family="MyriadPro-Regular" font-size="3">KfW-Hellblau Digital (#519dc2)</tspan><tspan x="0" y="7.2" font-family="MyriadPro-Regular" font-size="3">KfW-Gr端n Digital (#5e7200)</tspan><tspan x="0" y="10.8" font-family="MyriadPro-Regular" font-size="3">KfW-Hellgr端n (#a4b419)</tspan></text><path fill="none" d="M13-22h37v16H13z"/><text transform="translate(13.003 -20.579)"><tspan x="0" y="0" font-family="MyriadPro-Regular" font-size="2">Kombination KfW-Dunkelblau (</tspan><tspan x="25.9" y="0" fill="#005a8c" font-family="MyriadPro-Regular" font-size="2">#005a8c</tspan><tspan x="32.8" y="0" font-family="MyriadPro-Regular" font-size="2">) </tspan><tspan x="0" y="2.4" font-family="MyriadPro-Regular" font-size="2">und KfW-Hellblau Digital (</tspan><tspan x="21.6" y="2.4" fill="#519dc2" font-family="MyriadPro-Regular" font-size="2">#519dc2</tspan><tspan x="28.7" y="2.4" font-family="MyriadPro-Regular" font-size="2">) </tspan><tspan x="0" y="9.6" font-family="MyriadPro-Regular" font-size="2">Kombination KfW-Gr端n Digital (</tspan><tspan x="26.3" y="9.6" fill="#5e7200" font-family="MyriadPro-Regular" font-size="2">#5e7200</tspan><tspan x="33.4" y="9.6" font-family="MyriadPro-Regular" font-size="2">) </tspan><tspan x="0" y="12" font-family="MyriadPro-Regular" font-size="2">und KfW-Hellgr端n (</tspan><tspan x="16" y="12" fill="#a4b419" font-family="MyriadPro-Regular" font-size="2">#a4b419</tspan><tspan x="23.2" y="12" font-family="MyriadPro-Regular" font-size="2">)</tspan></text><path fill="#a4b419" d="M-39-6h6v4h-6z"/></g></svg>